<?xml version="1.0" encoding="utf-8"?>
<!-- Generator: Adobe Illustrator 27.3.1, SVG Export Plug-In . SVG Version: 6.00 Build 0)  -->
<svg version="1.1" id="Livello_1_copia_11" xmlns="http://www.w3.org/2000/svg" xmlns:xlink="http://www.w3.org/1999/xlink" x="0px"
	 y="0px" viewBox="0 0 66.8 79.3" style="enable-background:new 0 0 66.8 79.3;" xml:space="preserve">
<style type="text/css">
	.st0{fill:#FFFFFF;}
</style>
<g>
	<path class="st0" d="M22.1,44.1c0-5,0-10,0-14.9c0-2.2-1.5-4-3.7-4.4c-0.3-0.1-0.8,0-1.1-0.1c-1.9-0.4-3.2-2.2-3.4-4.1
		c0-1.5,0.3-2.7,1.3-3.7c0.8-0.8,1.8-1.1,2.9-1.1c6.6-0.1,13.2-0.1,19.8-0.1c1.7,0,3.2,0.4,4.8,1c2.9,1,5.4,2.7,7.3,5.1
		c1.7,2.4,2.6,5,2.8,7.8c0.3,2.2,0.1,4.1-0.4,6.3c-0.9,3.1-2.6,5.6-5.1,7.5c-2,1.5-2.5,3.7-1.2,5.9c1.5,2.6,3.1,5.3,4.5,7.8
		c1.7,2.9-0.3,6.4-3.7,6.5c-6.7,0.3-13.5,0.1-20.1,0.1c-2.7,0-4.5-1.9-4.5-4.5C22.1,54.2,22.1,49.1,22.1,44.1z"/>
</g>
</svg>
